<?xml version="1.0" encoding="UTF-8"?>
<svg xmlns="http://www.w3.org/2000/svg" xmlns:xlink="http://www.w3.org/1999/xlink" width="82.35pt" height="12.5pt" viewBox="0 0 82.35 12.5" version="1.1">
<defs>
<clipPath id="clip1">
  <path d="M 0 3 L 12 3 L 12 12.5 L 0 12.5 Z M 0 3 "/>
</clipPath>
<clipPath id="clip2">
  <path d="M 12 3 L 21 3 L 21 12.5 L 12 12.5 Z M 12 3 "/>
</clipPath>
<clipPath id="clip3">
  <path d="M 20 0 L 25 0 L 25 12.5 L 20 12.5 Z M 20 0 "/>
</clipPath>
<clipPath id="clip4">
  <path d="M 25 3 L 34 3 L 34 12.5 L 25 12.5 Z M 25 3 "/>
</clipPath>
<clipPath id="clip5">
  <path d="M 34 3 L 40 3 L 40 12.5 L 34 12.5 Z M 34 3 "/>
</clipPath>
<clipPath id="clip6">
  <path d="M 40 3 L 53 3 L 53 12.5 L 40 12.5 Z M 40 3 "/>
</clipPath>
<clipPath id="clip7">
  <path d="M 53 3 L 62 3 L 62 12.5 L 53 12.5 Z M 53 3 "/>
</clipPath>
<clipPath id="clip8">
  <path d="M 63 0 L 65 0 L 65 12.5 L 63 12.5 Z M 63 0 "/>
</clipPath>
<clipPath id="clip9">
  <path d="M 65 3 L 75 3 L 75 12.5 L 65 12.5 Z M 65 3 "/>
</clipPath>
<clipPath id="clip10">
  <path d="M 75 3 L 82.351563 3 L 82.351563 12.5 L 75 12.5 Z M 75 3 "/>
</clipPath>
</defs>
<g id="surface1">
<g clip-path="url(#clip1)" clip-rule="nonzero">
<path style=" stroke:none;fill-rule:nonzero;fill:rgb(92.89856%,10.598755%,18.399048%);fill-opacity:1;" d="M 1.632813 3.300781 L 3.339844 10.292969 L 5.070313 3.300781 L 6.742188 3.300781 L 8.484375 10.25 L 10.300781 3.300781 L 11.789063 3.300781 L 9.210938 12.175781 L 7.664063 12.175781 L 5.859375 5.304688 L 4.109375 12.175781 L 2.558594 12.175781 L 0 3.300781 L 1.632813 3.300781 "/>
</g>
<g clip-path="url(#clip2)" clip-rule="nonzero">
<path style=" stroke:none;fill-rule:nonzero;fill:rgb(92.89856%,10.598755%,18.399048%);fill-opacity:1;" d="M 17.613281 6.796875 C 17.953125 6.753906 18.183594 6.609375 18.300781 6.367188 C 18.367188 6.234375 18.398438 6.042969 18.398438 5.792969 C 18.398438 5.289063 18.21875 4.917969 17.851563 4.695313 C 17.492188 4.460938 16.976563 4.34375 16.304688 4.34375 C 15.523438 4.34375 14.972656 4.554688 14.648438 4.976563 C 14.464844 5.207031 14.34375 5.550781 14.289063 6.007813 L 12.898438 6.007813 C 12.925781 4.917969 13.277344 4.15625 13.960938 3.734375 C 14.644531 3.300781 15.4375 3.082031 16.335938 3.082031 C 17.382813 3.082031 18.230469 3.285156 18.878906 3.679688 C 19.527344 4.078125 19.851563 4.699219 19.851563 5.539063 L 19.851563 10.648438 C 19.851563 10.804688 19.878906 10.929688 19.941406 11.023438 C 20.007813 11.117188 20.140625 11.164063 20.347656 11.164063 C 20.414063 11.164063 20.488281 11.164063 20.570313 11.15625 C 20.652344 11.144531 20.742188 11.132813 20.835938 11.113281 L 20.835938 12.214844 C 20.605469 12.285156 20.425781 12.328125 20.304688 12.34375 C 20.183594 12.359375 20.019531 12.367188 19.808594 12.367188 C 19.292969 12.367188 18.921875 12.183594 18.691406 11.820313 C 18.566406 11.625 18.484375 11.351563 18.433594 11 C 18.128906 11.394531 17.691406 11.742188 17.125 12.035156 C 16.554688 12.328125 15.925781 12.472656 15.242188 12.476563 C 14.417969 12.476563 13.746094 12.226563 13.21875 11.726563 C 12.703125 11.226563 12.441406 10.601563 12.441406 9.84375 C 12.441406 9.023438 12.699219 8.386719 13.214844 7.933594 C 13.726563 7.480469 14.398438 7.203125 15.234375 7.09375 Z M 14.472656 10.832031 C 14.785156 11.082031 15.160156 11.207031 15.589844 11.207031 C 16.113281 11.207031 16.621094 11.085938 17.117188 10.84375 C 17.945313 10.4375 18.359375 9.777344 18.359375 8.863281 L 18.359375 7.65625 C 18.175781 7.777344 17.941406 7.875 17.65625 7.949219 C 17.367188 8.027344 17.085938 8.082031 16.808594 8.113281 L 15.90625 8.230469 C 15.367188 8.300781 14.957031 8.414063 14.6875 8.574219 C 14.230469 8.832031 14 9.246094 14 9.8125 C 14 10.242188 14.160156 10.585938 14.472656 10.832031 "/>
</g>
<g clip-path="url(#clip3)" clip-rule="nonzero">
<path style=" stroke:none;fill-rule:nonzero;fill:rgb(92.89856%,10.598755%,18.399048%);fill-opacity:1;" d="M 21.742188 0.824219 L 23.25 0.824219 L 23.25 3.300781 L 24.664063 3.300781 L 24.664063 4.519531 L 23.25 4.519531 L 23.25 10.3125 C 23.25 10.621094 23.351563 10.828125 23.566406 10.933594 C 23.679688 10.992188 23.875 11.023438 24.144531 11.023438 C 24.214844 11.023438 24.292969 11.023438 24.375 11.023438 C 24.457031 11.019531 24.554688 11.011719 24.664063 11 L 24.664063 12.175781 C 24.492188 12.226563 24.316406 12.257813 24.128906 12.285156 C 23.945313 12.304688 23.746094 12.316406 23.53125 12.316406 C 22.835938 12.316406 22.363281 12.140625 22.113281 11.785156 C 21.867188 11.425781 21.742188 10.960938 21.742188 10.394531 L 21.742188 4.519531 L 20.539063 4.519531 L 20.539063 3.300781 L 21.742188 3.300781 L 21.742188 0.824219 "/>
</g>
<g clip-path="url(#clip4)" clip-rule="nonzero">
<path style=" stroke:none;fill-rule:nonzero;fill:rgb(92.89856%,10.598755%,18.399048%);fill-opacity:1;" d="M 32.054688 7.03125 C 32 6.382813 31.855469 5.867188 31.636719 5.480469 C 31.226563 4.761719 30.542969 4.40625 29.589844 4.40625 C 28.90625 4.40625 28.328125 4.652344 27.863281 5.148438 C 27.402344 5.640625 27.15625 6.265625 27.128906 7.03125 Z M 31.511719 3.550781 C 32.101563 3.84375 32.550781 4.222656 32.863281 4.695313 C 33.160156 5.140625 33.359375 5.660156 33.460938 6.257813 C 33.542969 6.667969 33.589844 7.320313 33.589844 8.214844 L 27.085938 8.214844 C 27.113281 9.113281 27.328125 9.835938 27.726563 10.386719 C 28.121094 10.925781 28.734375 11.199219 29.570313 11.199219 C 30.351563 11.199219 30.972656 10.941406 31.4375 10.425781 C 31.703125 10.128906 31.890625 9.785156 32 9.390625 L 33.46875 9.390625 C 33.425781 9.71875 33.296875 10.082031 33.078125 10.488281 C 32.863281 10.882813 32.617188 11.207031 32.347656 11.464844 C 31.898438 11.90625 31.332031 12.203125 30.664063 12.359375 C 30.304688 12.445313 29.902344 12.488281 29.449219 12.488281 C 28.34375 12.488281 27.40625 12.089844 26.640625 11.289063 C 25.871094 10.480469 25.488281 9.355469 25.488281 7.90625 C 25.488281 6.480469 25.875 5.324219 26.648438 4.433594 C 27.421875 3.542969 28.429688 3.105469 29.679688 3.105469 C 30.308594 3.105469 30.917969 3.25 31.511719 3.550781 "/>
</g>
<g clip-path="url(#clip5)" clip-rule="nonzero">
<path style=" stroke:none;fill-rule:nonzero;fill:rgb(92.89856%,10.598755%,18.399048%);fill-opacity:1;" d="M 34.78125 3.300781 L 36.199219 3.300781 L 36.199219 4.832031 C 36.316406 4.535156 36.597656 4.171875 37.050781 3.75 C 37.503906 3.316406 38.027344 3.105469 38.617188 3.105469 C 38.644531 3.105469 38.691406 3.105469 38.757813 3.113281 C 38.824219 3.117188 38.941406 3.125 39.097656 3.144531 L 39.097656 4.71875 C 39.007813 4.703125 38.929688 4.691406 38.847656 4.683594 C 38.777344 4.679688 38.699219 4.679688 38.609375 4.675781 C 37.859375 4.675781 37.28125 4.917969 36.878906 5.40625 C 36.472656 5.886719 36.273438 6.441406 36.273438 7.070313 L 36.273438 12.175781 L 34.78125 12.175781 L 34.78125 3.300781 "/>
</g>
<g clip-path="url(#clip6)" clip-rule="nonzero">
<path style=" stroke:none;fill-rule:nonzero;fill:rgb(92.89856%,10.598755%,18.399048%);fill-opacity:1;" d="M 40.21875 3.300781 L 41.695313 3.300781 L 41.695313 4.5625 C 42.046875 4.125 42.367188 3.808594 42.65625 3.605469 C 43.144531 3.269531 43.703125 3.105469 44.328125 3.105469 C 45.035156 3.105469 45.605469 3.277344 46.035156 3.625 C 46.277344 3.824219 46.5 4.117188 46.699219 4.5 C 47.03125 4.027344 47.417969 3.675781 47.867188 3.449219 C 48.3125 3.21875 48.816406 3.105469 49.375 3.105469 C 50.566406 3.105469 51.378906 3.53125 51.8125 4.394531 C 52.042969 4.859375 52.15625 5.484375 52.15625 6.265625 L 52.15625 12.175781 L 50.609375 12.175781 L 50.609375 6.007813 C 50.609375 5.417969 50.460938 5.015625 50.164063 4.792969 C 49.867188 4.574219 49.507813 4.460938 49.082031 4.460938 C 48.5 4.460938 47.992188 4.65625 47.566406 5.050781 C 47.148438 5.445313 46.9375 6.097656 46.9375 7.011719 L 46.9375 12.175781 L 45.421875 12.175781 L 45.421875 6.382813 C 45.421875 5.78125 45.351563 5.34375 45.207031 5.066406 C 44.980469 4.652344 44.558594 4.445313 43.9375 4.445313 C 43.375 4.445313 42.859375 4.664063 42.398438 5.097656 C 41.9375 5.535156 41.710938 6.324219 41.710938 7.46875 L 41.710938 12.175781 L 40.21875 12.175781 L 40.21875 3.300781 "/>
</g>
<g clip-path="url(#clip7)" clip-rule="nonzero">
<path style=" stroke:none;fill-rule:nonzero;fill:rgb(92.89856%,10.598755%,18.399048%);fill-opacity:1;" d="M 60.085938 7.03125 C 60.023438 6.382813 59.882813 5.867188 59.664063 5.480469 C 59.253906 4.761719 58.574219 4.40625 57.617188 4.40625 C 56.929688 4.40625 56.355469 4.652344 55.894531 5.148438 C 55.429688 5.640625 55.183594 6.265625 55.15625 7.03125 Z M 59.539063 3.550781 C 60.128906 3.84375 60.582031 4.222656 60.890625 4.695313 C 61.1875 5.140625 61.386719 5.660156 61.484375 6.257813 C 61.574219 6.667969 61.617188 7.320313 61.617188 8.214844 L 55.113281 8.214844 C 55.140625 9.113281 55.355469 9.835938 55.75 10.386719 C 56.152344 10.925781 56.765625 11.199219 57.601563 11.199219 C 58.375 11.199219 59 10.941406 59.464844 10.425781 C 59.726563 10.128906 59.917969 9.785156 60.027344 9.390625 L 61.492188 9.390625 C 61.457031 9.71875 61.324219 10.082031 61.105469 10.488281 C 60.890625 10.882813 60.644531 11.207031 60.375 11.464844 C 59.921875 11.90625 59.363281 12.203125 58.695313 12.359375 C 58.332031 12.445313 57.925781 12.488281 57.476563 12.488281 C 56.371094 12.488281 55.433594 12.089844 54.667969 11.289063 C 53.898438 10.480469 53.515625 9.355469 53.515625 7.90625 C 53.515625 6.480469 53.902344 5.324219 54.675781 4.433594 C 55.449219 3.542969 56.457031 3.105469 57.707031 3.105469 C 58.339844 3.105469 58.945313 3.25 59.539063 3.550781 "/>
</g>
<g clip-path="url(#clip8)" clip-rule="nonzero">
<path style=" stroke:none;fill-rule:nonzero;fill:rgb(92.89856%,10.598755%,18.399048%);fill-opacity:1;" d="M 63.148438 0.00390625 L 64.640625 0.00390625 L 64.640625 12.175781 L 63.148438 12.175781 L 63.148438 0.00390625 "/>
</g>
<g clip-path="url(#clip9)" clip-rule="nonzero">
<path style=" stroke:none;fill-rule:nonzero;fill:rgb(92.89856%,10.598755%,18.399048%);fill-opacity:1;" d="M 72.84375 4.1875 C 73.632813 4.949219 74.027344 6.070313 74.027344 7.550781 C 74.027344 8.984375 73.679688 10.164063 72.984375 11.101563 C 72.289063 12.03125 71.207031 12.5 69.746094 12.5 C 68.523438 12.5 67.550781 12.085938 66.835938 11.261719 C 66.121094 10.4375 65.761719 9.324219 65.761719 7.933594 C 65.761719 6.441406 66.140625 5.253906 66.894531 4.367188 C 67.652344 3.488281 68.667969 3.046875 69.945313 3.046875 C 71.085938 3.046875 72.054688 3.425781 72.84375 4.1875 Z M 71.914063 10.09375 C 72.289063 9.34375 72.472656 8.511719 72.472656 7.59375 C 72.472656 6.765625 72.339844 6.09375 72.070313 5.570313 C 71.652344 4.75 70.929688 4.34375 69.902344 4.34375 C 68.992188 4.34375 68.328125 4.695313 67.914063 5.390625 C 67.5 6.085938 67.289063 6.925781 67.289063 7.90625 C 67.289063 8.855469 67.5 9.636719 67.914063 10.269531 C 68.328125 10.898438 68.984375 11.214844 69.886719 11.214844 C 70.875 11.214844 71.550781 10.84375 71.914063 10.09375 "/>
</g>
<g clip-path="url(#clip10)" clip-rule="nonzero">
<path style=" stroke:none;fill-rule:nonzero;fill:rgb(92.89856%,10.598755%,18.399048%);fill-opacity:1;" d="M 75.121094 3.300781 L 76.539063 3.300781 L 76.539063 4.5625 C 76.960938 4.042969 77.402344 3.667969 77.871094 3.441406 C 78.339844 3.214844 78.863281 3.101563 79.4375 3.101563 C 80.699219 3.101563 81.546875 3.539063 81.988281 4.417969 C 82.230469 4.898438 82.355469 5.585938 82.355469 6.480469 L 82.355469 12.175781 L 80.835938 12.175781 L 80.835938 6.582031 C 80.835938 6.042969 80.753906 5.605469 80.597656 5.273438 C 80.332031 4.71875 79.851563 4.445313 79.15625 4.445313 C 78.800781 4.445313 78.511719 4.480469 78.285156 4.550781 C 77.875 4.675781 77.515625 4.917969 77.210938 5.28125 C 76.960938 5.574219 76.792969 5.875 76.71875 6.195313 C 76.648438 6.5 76.609375 6.949219 76.609375 7.527344 L 76.609375 12.175781 L 75.121094 12.175781 L 75.121094 3.300781 "/>
</g>
</g>
</svg>
